<?xml version="1.0" encoding="UTF-8"?>
<svg id="Layer_1" data-name="Layer 1" xmlns="http://www.w3.org/2000/svg" viewBox="0 0 800 800">
  <defs>
    <style>
      .cls-1 {
        fill: #254860;
      }

      .cls-1, .cls-2 {
        stroke-width: 0px;
      }

      .cls-2 {
        fill: #fff;
      }
    </style>
  </defs>
  <rect class="cls-2" width="800" height="800"/>
  <g id="business_modules" data-name="business modules">
    <path class="cls-1" d="M401.98,427.71c-.6-2.42-3-5.74-8-7.88l-132.3-56.41c-5.86-2.51-14.52-2.5-20.38,0l-132.06,56.41c-4.99,2.14-5.49,5.46-6.09,7.88-2.78,2.36-3.16,5.87-3.16,10.03v148.37c0,7.32,3.46,14.93,10.01,18.08l131.6,63.59c2.01.97,3.76,1.45,5.76,1.45,1.46,0,2.7-.36,4.04-.87,1.34.52,2.66.87,4.12.87,2,0,4.03-.48,6.04-1.45l133.53-63.59c6.55-3.16,12.58-10.76,12.58-18.08v-148.37c0-4.16-2.93-7.67-5.71-10.03ZM247.18,377.56c1.98-.84,6.16-.84,8.14,0l123.47,52.79-123.92,59.59c-1.73.83-5.5.83-7.23,0l-123.93-59.59,123.48-52.78ZM115.32,426.32s-.05-.01-.08-.03v-.02s.05.03.08.05ZM117.98,590.33c-1.19-.57-2.6-2.85-2.6-4.21v-143.94l128.18,61.64c1.19.57,2.59,2.85,2.59,4.21v143.94l-128.17-61.63ZM244.31,660.83h0v.02s0-.02,0-.02ZM258.19,660.83h0v.02s0-.02,0-.02ZM392.31,586.11c0,1.36-1.4,3.64-2.59,4.21l-128.18,61.63v-143.94c0-1.36,1.4-3.64,2.59-4.21l128.18-61.64v143.95Z"/>
    <path class="cls-1" d="M694.29,427.71c-.6-2.42-3-5.74-8-7.88l-132.3-56.41c-5.86-2.51-14.52-2.5-20.38,0l-132.06,56.41c-4.99,2.14-5.49,5.46-6.09,7.88-2.78,2.36-3.16,5.87-3.16,10.03v148.37c0,7.32,3.46,14.93,10.01,18.08l131.6,63.59c2.01.97,3.76,1.45,5.76,1.45,1.46,0,2.7-.36,4.04-.87,1.34.52,2.66.87,4.12.87,2,0,4.03-.48,6.04-1.45l133.53-63.59c6.55-3.16,12.58-10.76,12.58-18.08v-148.37c0-4.16-2.93-7.67-5.71-10.03ZM539.49,377.56c1.98-.84,6.16-.84,8.14,0l123.47,52.79-123.92,59.59c-1.73.83-5.5.83-7.23,0l-123.93-59.59,123.48-52.78ZM407.63,426.32s-.05-.01-.08-.03v-.02s.05.03.08.05ZM410.29,590.33c-1.19-.57-2.6-2.85-2.6-4.21v-143.94l128.18,61.64c1.19.57,2.59,2.85,2.59,4.21v143.94l-128.17-61.63ZM536.62,660.83h0v.02s0-.02,0-.02ZM550.5,660.83h0v.02s0-.02,0-.02ZM684.62,586.11c0,1.36-1.4,3.64-2.59,4.21l-128.18,61.63v-143.94c0-1.36,1.4-3.64,2.59-4.21l128.18-61.64v143.95Z"/>
    <path class="cls-1" d="M548.14,196.94c-.6-2.42-3-5.74-8-7.88l-132.3-56.41c-5.86-2.51-14.52-2.5-20.38,0l-132.06,56.41c-4.99,2.14-5.49,5.46-6.09,7.88-2.78,2.36-3.16,5.87-3.16,10.03v148.37c0,7.32,3.46,14.93,10.01,18.08l131.6,63.59c2.01.97,3.76,1.45,5.76,1.45,1.46,0,2.7-.36,4.04-.87,1.34.52,2.66.87,4.12.87,2,0,4.03-.48,6.04-1.45l133.53-63.59c6.55-3.15,12.58-10.76,12.58-18.08v-148.37c0-4.16-2.93-7.67-5.71-10.03ZM393.34,146.79c1.98-.84,6.16-.84,8.14,0l123.47,52.79-123.92,59.59c-1.73.83-5.5.83-7.23,0l-123.93-59.59,123.47-52.78ZM261.48,195.55s-.05-.01-.08-.03v-.02s.05.03.08.05ZM264.13,359.56c-1.19-.57-2.6-2.85-2.6-4.21v-143.94l128.18,61.64c1.19.57,2.59,2.85,2.59,4.21v143.94l-128.17-61.63ZM390.46,430.06h0v.02s0-.02,0-.02ZM404.35,430.06h0v.02s0-.02,0-.02ZM538.46,355.34c0,1.36-1.4,3.64-2.59,4.21l-128.18,61.63v-143.94c0-1.36,1.4-3.64,2.59-4.21l128.18-61.64v143.95Z"/>
  </g>
</svg>