<?xml version="1.0" encoding="UTF-8"?>
<svg id="_ÎÓÈ_1" data-name="—ÎÓÈ_1" xmlns="http://www.w3.org/2000/svg" viewBox="300 500 3400 1500">
  <defs>
    <style>
      .cls-1 {
        fill: none;
      }

      .cls-1, .cls-2 {
        stroke-width: 0px;
      }
    </style>
  </defs>
  <rect class="cls-1" width="4000" height="2500"/>
  <rect class="cls-1" width="4000" height="2500"/>
  <g>
    <g>
      <g>
        <path class="cls-2" d="M399.62,507.15h32.5l64.76,168.37h-33.31l-13.17-34.68h-68.7l-13.7,34.68h-33.31l64.93-168.37ZM416.07,551.79l-22.59,57.8h45.05l-22.46-57.8Z"/>
        <path class="cls-2" d="M3527.34,675.52v-168.37h34.65c20.1,0,34.8.99,44.1,2.98,13.2,2.67,23.7,7.63,31.5,14.88,7.8,7.25,11.7,15.8,11.7,25.64,0,6.41-1.77,12.23-5.32,17.46-3.55,5.23-9.31,10.13-17.3,14.71,13.38,4.81,23.17,10.82,29.36,18.03,6.19,7.21,9.29,15.74,9.29,25.58s-3.2,18.09-9.6,25.87c-6.4,7.78-14.65,13.6-24.74,17.46-10.1,3.85-24.05,5.78-41.84,5.78h-61.79ZM3569.28,537.71v35.48h9.17c10.22,0,17.82-1.64,22.78-4.92,4.96-3.28,7.44-7.74,7.44-13.39,0-5.27-2.36-9.44-7.07-12.53-4.71-3.09-11.88-4.64-21.5-4.64h-10.83ZM3569.28,601.81v43.15h10.51c17.43,0,29.17-1.68,35.23-5.04,6.06-3.36,9.09-8.24,9.09-14.65,0-7.25-3.56-12.97-10.67-17.17-7.11-4.2-18.93-6.3-35.45-6.3h-8.71Z"/>
      </g>
      <g>
        <path class="cls-2" d="M3332.45,646.43H678.96c-4.53,0-8.19-3.67-8.19-8.19s3.67-8.19,8.19-8.19h2653.49c4.53,0,8.2,3.67,8.2,8.19s-3.67,8.19-8.2,8.19Z"/>
        <g>
          <path class="cls-2" d="M587.42,636.36c0-24.86,20.16-45.02,45.02-45.02s45.02,20.16,45.02,45.02-20.16,45.02-45.02,45.02-45.02-20.16-45.02-45.02Z"/>
          <path class="cls-2" d="M632.44,689.57c-29.34,0-53.22-23.87-53.22-53.22s23.87-53.22,53.22-53.22,53.22,23.87,53.22,53.22-23.87,53.22-53.22,53.22ZM632.44,599.53c-20.31,0-36.83,16.52-36.83,36.83s16.52,36.83,36.83,36.83,36.83-16.52,36.83-36.83-16.52-36.83-36.83-36.83Z"/>
        </g>
        <g>
          <path class="cls-2" d="M3334.22,636.36c0-24.86,20.16-45.02,45.01-45.02s45.03,20.16,45.03,45.02-20.16,45.02-45.03,45.02-45.01-20.16-45.01-45.02Z"/>
          <path class="cls-2" d="M3379.23,689.57c-29.34,0-53.21-23.87-53.21-53.22s23.87-53.22,53.21-53.22,53.22,23.87,53.22,53.22-23.88,53.22-53.22,53.22ZM3379.23,599.53c-20.3,0-36.82,16.52-36.82,36.83s16.52,36.83,36.82,36.83,36.83-16.52,36.83-36.83-16.52-36.83-36.83-36.83Z"/>
        </g>
      </g>
    </g>
  </g>
</svg>
