<?xml version="1.0" encoding="UTF-8"?>
<svg id="Layer_1" data-name="Layer 1" xmlns="http://www.w3.org/2000/svg" xmlns:xlink="http://www.w3.org/1999/xlink" viewBox="0 0 425.47 270.47">
  <defs>
    <style>
      .cls-1 {
        fill: url(#New_Gradient_Swatch);
      }

      .cls-1, .cls-2 {
        stroke-width: 0px;
      }

      .cls-2 {
        fill: white;
      }
    </style>
    <radialGradient id="New_Gradient_Swatch" data-name="New Gradient Swatch" cx="2099.58" cy="955.39" fx="2099.58" fy="955.39" r="150.35" gradientTransform="translate(-2758.59 143.09) scale(1.42 .12)" gradientUnits="userSpaceOnUse">
      <stop offset="0" stop-color="#c7c7c7"/>
      <stop offset=".84" stop-color="#fff"/>
    </radialGradient>
  </defs>
  <ellipse class="cls-1" cx="212.74" cy="253.15" rx="212.74" ry="17.32"/>
  <path class="cls-2" d="M368.55,0c-4.29,2.45-9.76,7.85-11.41,11.41.14,16.32-2.11,32.91-8.07,48.82-1.64,4.38-3.73,8.66-5.88,12.83-11.75,22.83-29.69,42.99-52.16,58.16-45.01,31.16-111.31,40.59-167.43,14.26-27.29-12.41-52.24-34.2-65.85-61.47,15.56,24.64,36.78,43.91,61.83,56.12,27.81,13.57,58.61,17.31,87.51,14.97,47.13-3.13,84.16-27.63,104.82-49.5,21.43-22.16,26.47-41.68,27.44-41.54-15.15.69-27.34,18.89-46.47,11.55-1.83,8.38,15.17,13,15.41,12.71-.04.55-19.01,12.74-37.45,16.31-17.58,3.41-26.34-.92-49.53-.7,7.78,4.6,15.2,23.24,24.26,26.58-1.1-.25-15.41-1.47-32.19-4.91-17.85-3.3-30.22-15.23-45.93-24.56,7.99,7.53,4.8,28.55,11.17,37.42-14.87-14.85-33.23-45.24-61.98-59.06,6.35,9.75,6.96,26.89,2.13,27.54-3.71-17.16-14-30.01-28.44-37.21-23.67-9.39-40.68-9.31-46.14-6.03-6.45,9.6-2.82,23.68,1.1,35.84,5.71,15.57,16.25,26.14,34.22,28.59-4.96,6.49-17.58,6.05-25.65,2.54,15.11,21.64,24.02,35.42,66.92,50.55,24.46,8.68,64.2.82,78.68-10.5-5.06,11.39-46.27,21.62-38.06,25.48,30.74,11.16,67.56,11,90.41-.76,14.1-7.26,27.49-21.5,27.66-39.15,1.85,11.48.63,21.86-3.53,30.5,6.25-2.71,11.7-5.57,16.19-8.38,40.45-23.75,57.33-64.08,49.9-81.19,6.06,4.88,9.6,11.52,7.14,22.45,20.06-31.79,11.28-46.65,9.53-59.16,5.77-13.57,11.74-40.18,9.85-60.52Z"/>
</svg>
